<svg width="40" height="40" viewBox="0 0 40 40" fill="none" xmlns="http://www.w3.org/2000/svg">
<path d="M30.7812 18.835C30.3498 18.835 30 19.1848 30 19.6162V19.7334C30 20.1649 30.3498 20.5147 30.7812 20.5147C31.2127 20.5147 31.5625 20.1648 31.5625 19.7334V19.6162C31.5625 19.1847 31.2127 18.835 30.7812 18.835Z" fill="#7772F1"/>
<path d="M35.7812 14.6777V6.72559C35.7812 5.13168 34.4845 3.83496 32.8906 3.83496C32.2216 3.83496 31.6053 4.0641 31.1149 4.44715L22.7551 7.57848C22.351 7.7298 22.1462 8.18004 22.2975 8.5841C22.415 8.89793 22.7128 9.09152 23.0292 9.09152C23.1203 9.09152 23.2129 9.07551 23.3031 9.0416L30.0073 6.53035C30.003 6.59488 29.9999 6.6598 29.9999 6.72543V15.7879C29.9999 16.2193 30.3497 16.5692 30.7812 16.5692C31.2127 16.5692 31.5624 16.2193 31.5624 15.7879V6.72543C31.5624 5.99309 32.1582 5.3973 32.8905 5.3973C33.6229 5.3973 34.2187 5.99309 34.2187 6.72543V32.5067C34.2187 33.239 33.6229 33.8348 32.8905 33.8348C32.1582 33.8348 31.5624 33.239 31.5624 32.5067V23.0536C31.5624 22.6221 31.2127 22.2723 30.7812 22.2723C30.3497 22.2723 29.9999 22.6221 29.9999 23.0536V32.5067C29.9999 32.5723 30.0029 32.6372 30.0073 32.7018L10.3125 25.3246V13.9079L18.2425 10.9375C18.6466 10.7861 18.8514 10.3359 18.7001 9.93184C18.5487 9.52777 18.0984 9.32254 17.6944 9.47434L9.38977 12.585H4.60938C2.06773 12.585 0 14.6528 0 17.1944V22.0382C0 24.5299 1.98766 26.5647 4.46055 26.6438L7.90297 35.6631C8.01852 35.9658 8.30891 36.1658 8.63289 36.1658H13.1641C13.4212 36.1658 13.6618 36.0394 13.8076 35.8277C13.9534 35.616 13.9857 35.3461 13.8941 35.1061L10.8786 27.2053L31.115 34.7854C31.6054 35.1685 32.2216 35.3976 32.8907 35.3976C34.4846 35.3976 35.7813 34.1009 35.7813 32.507V24.5548C38.1684 24.1785 40 22.1075 40 19.6162C40 17.125 38.1684 15.0539 35.7812 14.6777ZM4.60938 25.085C2.9293 25.085 1.5625 23.7182 1.5625 22.0381V17.1943C1.5625 15.5143 2.9293 14.1475 4.60938 14.1475H8.75V25.085H5H4.60938ZM12.0297 34.6032H9.17086V34.6032L6.13445 26.6475H8.99328L12.0297 34.6032ZM35.7812 22.963V16.2693C37.3014 16.6241 38.4375 17.9895 38.4375 19.6161C38.4375 21.2428 37.3014 22.6082 35.7812 22.963Z" fill="#7772F1"/>
<path d="M21.0709 8.69773C20.9256 8.55242 20.724 8.46875 20.5186 8.46875C20.3131 8.46875 20.1115 8.55234 19.9662 8.69773C19.8209 8.84297 19.7373 9.04453 19.7373 9.25C19.7373 9.45555 19.8209 9.65711 19.9662 9.80234C20.1115 9.94766 20.3131 10.0312 20.5186 10.0312C20.724 10.0312 20.9256 9.94773 21.0709 9.80234C21.2162 9.65711 21.2998 9.45555 21.2998 9.25C21.2998 9.04453 21.2162 8.84297 21.0709 8.69773Z" fill="#7772F1"/>
<path d="M5.70859 17.1625C5.56328 17.0164 5.36172 16.9336 5.15625 16.9336C4.95078 16.9336 4.74922 17.0164 4.60391 17.1625C4.45859 17.3078 4.375 17.5094 4.375 17.7148C4.375 17.9203 4.45859 18.1211 4.60391 18.2672C4.74922 18.4125 4.95078 18.4961 5.15625 18.4961C5.36172 18.4961 5.56328 18.4125 5.70859 18.2672C5.85391 18.1219 5.9375 17.9203 5.9375 17.7148C5.9375 17.5086 5.85391 17.3078 5.70859 17.1625Z" fill="#7772F1"/>
<path d="M6.5625 21.4131H4.0625C3.63102 21.4131 3.28125 21.7629 3.28125 22.1943C3.28125 22.6257 3.63102 22.9756 4.0625 22.9756H6.5625C6.99398 22.9756 7.34375 22.6258 7.34375 22.1943C7.34375 21.7629 6.99398 21.4131 6.5625 21.4131Z" fill="#7772F1"/>
</svg>
