<svg width="20" height="20" viewBox="0 0 20 20" fill="none" xmlns="http://www.w3.org/2000/svg">
<g filter="url(#filter0_d_36_3333)">
<path fill-rule="evenodd" clip-rule="evenodd" d="M11.8619 4.52925C12.1223 4.2689 12.5444 4.2689 12.8047 4.52925L15.8047 7.52925C16.0651 7.7896 16.0651 8.21171 15.8047 8.47206L12.8047 11.4721C12.5444 11.7324 12.1223 11.7324 11.8619 11.4721C11.6016 11.2117 11.6016 10.7896 11.8619 10.5292L13.7239 8.66732H4.66667C4.29848 8.66732 4 8.36884 4 8.00065C4 7.63246 4.29848 7.33398 4.66667 7.33398H13.7239L11.8619 5.47206C11.6016 5.21171 11.6016 4.7896 11.8619 4.52925Z" fill="white"/>
</g>
<defs>
<filter id="filter0_d_36_3333" x="-2" y="0" width="24" height="24" filterUnits="userSpaceOnUse" color-interpolation-filters="sRGB">
<feFlood flood-opacity="0" result="BackgroundImageFix"/>
<feColorMatrix in="SourceAlpha" type="matrix" values="0 0 0 0 0 0 0 0 0 0 0 0 0 0 0 0 0 0 127 0" result="hardAlpha"/>
<feOffset dy="4"/>
<feGaussianBlur stdDeviation="2"/>
<feColorMatrix type="matrix" values="0 0 0 0 0 0 0 0 0 0 0 0 0 0 0 0 0 0 0.25 0"/>
<feBlend mode="normal" in2="BackgroundImageFix" result="effect1_dropShadow_36_3333"/>
<feBlend mode="normal" in="SourceGraphic" in2="effect1_dropShadow_36_3333" result="shape"/>
</filter>
</defs>
</svg>
